# xmcd CD database file
#
# Track frame offsets:
#	150
#	17972
#	34825
#	57780
#	75945
#	92750
#	112285
#	132317
#	154250
#	183090
#	202545
#
# Disc length: 2982 seconds
#
# Revision: 2
# Processed by: cddbd v1.5.2PL0 Copyright (c) Steve Scherf et al.
# Submitted via: CDex 1.60beta1-cs1
#
DISCID=840ba40b
DTITLE=ribbon - ワンダフルでいこう!!
DYEAR=1991
DGENRE=JPop
TTITLE0=After School 4 o'clock
TTITLE1=わかってないね
TTITLE2=ハートだけがUNIVERSE
TTITLE3=太陽を聞いて
TTITLE4=Boy's Dream Days ～あの頃の気持ち
TTITLE5=4月のシルエット
TTITLE6=Virgin Snow
TTITLE7=ハートを堕として
TTITLE8=あのコによろしく (Wonderful Mega Mix)
TTITLE9=さよなら
TTITLE10=君ならば大丈夫
EXTD=YEAR: 1991
EXTT0=
EXTT1=
EXTT2=
EXTT3=
EXTT4=
EXTT5=
EXTT6=
EXTT7=
EXTT8=
EXTT9=
EXTT10=
PLAYORDER=
